# xmcd
#
# Track frame offsets: 
#        150
#        1304
#        8731
#        17902
#        29594
#        40454
#        48567
#        55072
#        65629
#        79079
#        92992
#        103801
#        115239
#        125924
#        136052
#        161241
#        168962
#        177194
#        182006
#        190622
#        196699
#
# Disc length: 2728 seconds
#
# Revision: 0
# Processed by: cddbd v1.5.2PL0 Copyright (c) Steve Scherf et al.
# Submitted via: ExactAudioCopy v0.95b4
#
DISCID=1e0aa615
DTITLE=Mostviertler Birnbeitler - Birnbeitln
DYEAR=1996
DGENRE=World
TTITLE0=Da Abzwickte
TTITLE1=S'Erste - Polka
TTITLE2=S'Zweite - Ländler
TTITLE3=Bertl - Boarisch
TTITLE4=Grüaß di Godn
TTITLE5=Ländliche Skizze
TTITLE6=S'letzte -Zwiefacher
TTITLE7=Hochmassiv
TTITLE8=Schneewalzer
TTITLE9=Rosamunde
TTITLE10=Für's Griederl - Boarisch
TTITLE11=Aufbroch - Ländler
TTITLE12=Boadlandler
TTITLE13=Holzbacker
TTITLE14=He, Musikanten
TTITLE15=Ennstaler Polka
TTITLE16=Einfacher Zwiefacher
TTITLE17=D'raufgab
TTITLE18=Wahre Freundschaft
TTITLE19=S' ist Feierabend
TTITLE20=Pfiat God
EXTD=
EXTT0=
EXTT1=
EXTT2=
EXTT3=
EXTT4=
EXTT5=
EXTT6=
EXTT7=
EXTT8=
EXTT9=
EXTT10=
EXTT11=
EXTT12=
EXTT13=
EXTT14=
EXTT15=
EXTT16=
EXTT17=
EXTT18=
EXTT19=
EXTT20=
PLAYORDER=
